HIERARCHY
ROOT Hips
{
	OFFSET 13.361450 91.980232 11.169650
	CHANNELS 6 Xposition Yposition Zposition Zrotation Yrotation Xrotation 
	JOINT LeftUpLeg
	{
		OFFSET 0.103455 1.857829 10.548506
		CHANNELS 3 Zrotation Yrotation Xrotation
		JOINT LeftLeg
		{
			OFFSET 43.499996 -0.000034 0.000000
			CHANNELS 3 Zrotation Yrotation Xrotation
			JOINT LeftFoot
			{
				OFFSET 42.372192 0.000015 -0.000006
				CHANNELS 3 Zrotation Yrotation Xrotation
				JOINT LeftToe
				{
					OFFSET 17.299999 -0.000000 -0.000002
					CHANNELS 3 Zrotation Yrotation Xrotation
					End Site
					{
						OFFSET 0.000000 0.000000 0.000000
					}
				}
			}
		}
	}
	JOINT RightUpLeg
	{
		OFFSET 0.103461 1.857828 -10.548504
		CHANNELS 3 Zrotation Yrotation Xrotation
		JOINT RightLeg
		{
			OFFSET 43.500038 -0.000027 0.000010
			CHANNELS 3 Zrotation Yrotation Xrotation
			JOINT RightFoot
			{
				OFFSET 42.372265 -0.000004 0.000015
				CHANNELS 3 Zrotation Yrotation Xrotation
				JOINT RightToe
				{
					OFFSET 17.299992 -0.000005 0.000008
					CHANNELS 3 Zrotation Yrotation Xrotation
					End Site
					{
						OFFSET 0.000000 0.000000 0.000000
					}
				}
			}
		}
	}
	JOINT Spine
	{
		OFFSET 6.901968 -2.603732 0.000000
		CHANNELS 3 Zrotation Yrotation Xrotation
		JOINT Spine1
		{
			OFFSET 12.588099 -0.000001 0.000001
			CHANNELS 3 Zrotation Yrotation Xrotation
			JOINT Spine2
			{
				OFFSET 12.343203 -0.000001 -0.000000
				CHANNELS 3 Zrotation Yrotation Xrotation
				JOINT Neck
				{
					OFFSET 25.832890 -0.000002 0.000001
					CHANNELS 3 Zrotation Yrotation Xrotation
					JOINT Head
					{
						OFFSET 11.766614 0.000006 0.000000
						CHANNELS 3 Zrotation Yrotation Xrotation
						End Site
						{
							OFFSET 0.000000 0.000000 0.000000
						}
					}
				}
				JOINT LeftShoulder
				{
					OFFSET 19.745895 -1.480368 6.000105
					CHANNELS 3 Zrotation Yrotation Xrotation
					JOINT LeftArm
					{
						OFFSET 11.284125 -0.000008 -0.000020
						CHANNELS 3 Zrotation Yrotation Xrotation
						JOINT LeftForeArm
						{
							OFFSET 33.000050 0.000002 0.000037
							CHANNELS 3 Zrotation Yrotation Xrotation
							JOINT LeftHand
							{
								OFFSET 25.200003 0.000015 -0.000001
								CHANNELS 3 Zrotation Yrotation Xrotation
								End Site
								{
									OFFSET 0.000000 0.000000 0.000000
								}
							}
						}
					}
				}
				JOINT RightShoulder
				{
					OFFSET 19.746092 -1.480371 -6.000073
					CHANNELS 3 Zrotation Yrotation Xrotation
					JOINT RightArm
					{
						OFFSET 11.284139 -0.000016 -0.000008
						CHANNELS 3 Zrotation Yrotation Xrotation
						JOINT RightForeArm
						{
							OFFSET 33.000092 0.000014 0.000002
							CHANNELS 3 Zrotation Yrotation Xrotation
							JOINT RightHand
							{
								OFFSET 25.199774 0.000137 0.000428
								CHANNELS 3 Zrotation Yrotation Xrotation
								End Site
								{
									OFFSET 0.000000 0.000000 0.000000
								}
							}
						}
					}
				}
			}
		}
	}
}
MOTION
Frames: 13
Frame Time: 0.033333
13.361450 91.980232 11.169650 89.050552 6.008032 88.081184 -176.334092 -4.656097 171.268250 -17.828269 -1.920439 -1.315756 86.081858 0.512920 -2.402515 21.454551 0.003079 0.000000 -176.033072 -1.762098 -177.993063 -16.896693 3.234920 17.048804 85.442934 -11.210376 3.906114 21.454558 -0.003112 -0.000019 7.189543 0.251077 0.214469 4.367212 0.480708 0.438552 4.049089 0.483483 0.435651 -2.374107 0.390041 -1.438972 -4.873467 1.624148 -1.711368 -83.679789 -80.927490 -98.922545 -9.358953 1.343415 -16.466596 -19.874640 -17.369198 1.239151 15.894079 6.578264 0.206211 47.438375 86.563277 -131.000638 -0.168394 -7.638116 23.046539 -27.322358 21.442500 -1.633935 12.804528 -1.745104 -15.454951 
13.359300 91.979713 11.172490 89.050538 6.008045 88.077864 -176.334079 -4.651595 171.262581 -17.826036 -1.916829 -1.315760 86.076592 0.512797 -2.396329 21.454553 0.003089 0.000000 -176.033058 -1.762099 -177.990591 -16.909330 3.234921 17.045442 85.448651 -11.208141 3.904698 21.454560 -0.003099 -0.000018 7.189558 0.251080 0.214476 4.367206 0.480709 0.438542 4.049115 0.483483 0.435645 -2.340490 0.396107 -1.439699 -4.905172 1.619126 -1.709841 -83.658513 -80.942577 -98.942510 -9.344683 1.343417 -16.463326 -19.876282 -17.369198 1.239159 15.882990 6.578267 0.225679 47.632452 86.552635 -130.808341 -0.152977 -7.637891 23.030822 -27.325031 21.445192 -1.633939 12.800517 -1.737685 -15.444287 
13.296450 91.979103 11.189850 89.050538 6.006867 88.060591 -176.333314 -4.695300 171.253907 -17.865582 -1.907787 -1.314960 86.097007 0.498179 -2.471141 21.454551 0.003090 -0.000001 -176.033058 -1.799610 -177.927152 -16.926513 3.233176 17.007263 85.466417 -11.192651 3.839946 21.454558 -0.003106 -0.000017 7.194836 0.251080 0.214471 4.377808 0.489511 0.438104 4.059696 0.492282 0.435145 -2.260558 0.367174 -1.454792 -5.005031 1.705245 -1.757150 -83.703791 -80.979290 -98.893209 -9.355571 1.339043 -16.451450 -19.859798 -17.368509 1.239145 15.835949 6.577727 0.256237 48.454414 86.505145 -129.992980 -0.074365 -7.655025 22.947439 -27.419340 21.458366 -1.633947 12.772911 -1.595256 -15.518625 
13.232140 91.989021 11.198690 89.050531 5.994969 88.067325 -176.361604 -4.728688 171.251598 -17.895500 -1.897060 -1.306663 86.035139 0.490070 -2.476075 21.454551 0.003104 0.000000 -176.038564 -1.821503 -177.906129 -16.925786 3.249905 16.997803 85.445796 -11.190227 3.814010 21.454557 -0.003114 -0.000017 7.202361 0.251081 0.207392 4.392810 0.494123 0.424065 4.074715 0.496811 0.421075 -2.282253 0.381884 -1.467976 -4.984559 1.724303 -1.770106 -83.828059 -80.951498 -98.771127 -9.398178 1.323738 -16.337592 -19.849585 -17.356767 1.239167 15.913050 6.539921 0.396556 48.389793 86.529822 -130.056118 -0.096617 -7.667202 22.934643 -27.548965 21.482738 -1.633948 12.766862 -1.672746 -15.557554 
13.178900 91.987633 11.213420 89.050545 5.967164 88.098949 -176.387709 -4.773795 171.188214 -17.898417 -1.866082 -1.231174 86.052679 0.423889 -2.547355 21.454553 0.003087 -0.000001 -176.061253 -1.864003 -177.866377 -16.937629 3.245316 16.998913 85.429882 -11.190655 3.811963 21.454557 -0.003098 -0.000015 7.205341 0.256954 0.199796 4.397961 0.506151 0.409113 4.079871 0.508742 0.406053 -2.428892 0.437549 -1.487402 -4.794768 1.688695 -1.759424 -83.688402 -80.866598 -98.919997 -9.514540 1.386379 -16.342935 -19.849961 -17.367629 1.239153 15.874651 6.541866 0.412195 47.602361 86.591533 -130.836659 -0.172410 -7.685751 22.984847 -27.632138 21.494822 -1.633938 12.736799 -1.745053 -15.504487 
13.126980 91.990631 11.235890 89.064506 5.948457 88.117944 -176.378885 -4.800290 171.112522 -17.878199 -1.851250 -1.184056 86.017886 0.386240 -2.567250 21.454555 0.003094 0.000001 -176.079285 -1.890803 -177.903683 -16.962486 3.247632 17.034545 85.441855 -11.217574 3.796767 21.454558 -0.003108 -0.000018 7.206399 0.262188 0.198249 4.395278 0.516659 0.406202 4.077195 0.519262 0.403083 -2.277531 0.396443 -1.486873 -4.925933 1.697205 -1.776668 -83.667044 -80.925044 -98.935686 -9.511273 1.403177 -16.371197 -19.852870 -17.372241 1.239154 15.901010 6.562953 0.360528 47.568327 86.597052 -130.870154 -0.171391 -7.672363 23.012256 -27.647714 21.507420 -1.633944 12.719194 -1.614430 -15.519139 
13.074650 91.992180 11.265960 89.075653 5.947367 88.122179 -176.344215 -4.820406 171.092386 -17.858211 -1.841036 -1.177907 86.019232 0.366717 -2.648504 21.454551 0.003090 0.000000 -176.054942 -1.927388 -177.934720 -16.951107 3.233838 17.055279 85.459846 -11.232444 3.793458 21.454560 -0.003119 -0.000018 7.206551 0.266535 0.195142 4.392061 0.525404 0.405522 4.073972 0.527986 0.402340 -2.154838 0.444863 -1.483264 -5.018573 1.671395 -1.754938 -83.658629 -80.983080 -98.938261 -9.472535 1.401744 -16.375667 -19.852751 -17.360095 1.239165 15.853270 6.478020 0.422445 47.483239 86.613834 -130.954069 -0.182989 -7.665848 22.992587 -27.663969 21.531108 -1.633941 12.711998 -1.496578 -15.576950 
13.028010 91.985252 11.286460 89.070250 5.938368 88.136146 -176.357588 -4.854205 171.133395 -17.876246 -1.836314 -1.197838 86.025051 0.377870 -2.662227 21.454553 0.003096 0.000001 -176.071062 -1.952390 -177.937247 -16.992585 3.262529 17.076779 85.470153 -11.250963 3.770417 21.454555 -0.003115 -0.000018 7.206778 0.273582 0.191347 4.395035 0.539660 0.394975 4.076930 0.542170 0.391715 -2.147783 0.419030 -1.450159 -4.948920 1.717846 -1.740181 -83.637627 -81.052728 -98.952475 -9.364556 1.421321 -16.449049 -19.963528 -17.388671 1.239146 15.829389 6.407257 0.393761 47.728563 86.585448 -130.711543 -0.142359 -7.716747 23.020176 -27.737933 21.551690 -1.633946 12.711861 -1.464750 -15.626298 
12.987920 91.986267 11.304920 89.084723 5.931910 88.140285 -176.365470 -4.867288 171.120213 -17.916319 -1.822261 -1.166513 86.057972 0.341234 -2.743059 21.454553 0.003101 0.000002 -176.090623 -1.940597 -177.905814 -17.039912 3.295017 17.054972 85.485971 -11.240056 3.749522 21.454560 -0.003108 -0.000018 7.208045 0.275308 0.187442 4.404174 0.543283 0.385118 4.086089 0.545739 0.381843 -2.177394 0.414912 -1.439087 -4.918069 1.722959 -1.730945 -83.666471 -81.014622 -98.927381 -9.370131 1.468576 -16.463934 -20.066787 -17.454251 1.239143 15.850378 6.366774 0.356732 47.574542 86.613547 -130.863378 -0.175569 -7.777335 23.048924 -27.811955 21.553838 -1.633949 12.671445 -1.469727 -15.515734 
12.947980 91.981270 11.329960 89.096676 5.935916 88.131768 -176.368448 -4.879590 171.053372 -17.950142 -1.809255 -1.148350 86.031922 0.340054 -2.677718 21.454555 0.003095 0.000000 -176.080774 -1.955797 -177.863604 -17.062101 3.285124 17.042587 85.524589 -11.233207 3.740118 21.454558 -0.003105 -0.000016 7.211573 0.279266 0.183494 4.411238 0.546716 0.377311 4.093148 0.549124 0.374002 -2.158744 0.381799 -1.420516 -4.958555 1.764805 -1.733651 -83.764791 -81.000463 -98.829921 -9.355457 1.480248 -16.409017 -20.102280 -17.474450 1.239146 15.855039 6.307809 0.371259 47.965605 86.592742 -130.475342 -0.152995 -7.842021 23.043851 -27.858822 21.549021 -1.633940 12.632109 -1.425999 -15.554222 
12.906910 91.973412 11.349470 89.087920 5.944813 88.142013 -176.377560 -4.910701 171.051214 -18.007913 -1.784094 -1.144993 86.078231 0.323356 -2.756183 21.454551 0.003100 0.000001 -176.080392 -2.000108 -177.871185 -17.103504 3.268407 17.062369 85.543762 -11.248084 3.729139 21.454560 -0.003120 -0.000018 7.219705 0.283965 0.181255 4.427513 0.557004 0.373674 4.109400 0.559379 0.370312 -2.169876 0.333859 -1.429118 -4.962824 1.790232 -1.762635 -83.694399 -81.027361 -98.897970 -9.328149 1.510605 -16.409518 -20.094123 -17.479301 1.239142 15.832612 6.258674 0.445193 48.147373 86.595959 -130.294464 -0.146225 -7.909165 23.026311 -27.838796 21.569613 -1.633936 12.639373 -1.342456 -15.547756 
12.872130 91.965912 11.369050 89.075379 5.957781 88.122336 -176.368981 -4.940997 171.039644 -18.051862 -1.769622 -1.128794 86.101296 0.308325 -2.777430 21.454551 0.003093 -0.000000 -176.072250 -2.027799 -177.902618 -17.135211 3.279096 17.069804 85.561746 -11.249584 3.750172 21.454558 -0.003101 -0.000016 7.232690 0.288312 0.179747 4.453517 0.569407 0.372690 4.135406 0.571797 0.369284 -2.268650 0.328922 -1.406190 -4.954507 1.770154 -1.735617 -83.743706 -80.990013 -98.852133 -9.362142 1.571576 -16.437795 -20.099660 -17.498839 1.239159 15.810081 6.221636 0.363154 48.089545 86.597913 -130.352057 -0.181499 -7.968112 23.017323 -27.758591 21.597683 -1.633937 12.635461 -1.328122 -15.488987 
12.837780 91.968918 11.382060 89.071022 5.930330 88.113948 -176.394157 -4.964007 171.022637 -18.067727 -1.768115 -1.129135 86.083756 0.310318 -2.766935 21.454555 0.003094 -0.000001 -176.085105 -2.056306 -177.863481 -17.129850 3.268221 17.044770 85.557204 -11.237621 3.716728 21.454557 -0.003114 -0.000017 7.229135 0.290860 0.178577 4.443816 0.574567 0.372858 4.125724 0.576965 0.369400 -2.228053 0.284642 -1.406858 -4.989750 1.888405 -1.779836 -83.776450 -80.995033 -98.818630 -9.364742 1.632537 -16.462387 -20.106950 -17.512173 1.239147 15.784560 6.085337 0.388213 48.520568 86.584307 -129.923954 -0.190806 -8.039465 23.058662 -27.705628 21.571074 -1.633936 12.617441 -1.354708 -15.493418 
